<svg id="visual" viewBox="0 0 1920 300" width="1920" height="300" xmlns="http://www.w3.org/2000/svg" xmlns:xlink="http://www.w3.org/1999/xlink" version="1.1"><path d="M0 54L32 57.7C64 61.3 128 68.7 192 74.7C256 80.7 320 85.3 384 93.5C448 101.7 512 113.3 576 120C640 126.7 704 128.3 768 126.3C832 124.3 896 118.7 960 121.8C1024 125 1088 137 1152 141.8C1216 146.7 1280 144.3 1344 133.7C1408 123 1472 104 1536 105.3C1600 106.7 1664 128.3 1728 125.8C1792 123.3 1856 96.7 1888 83.3L1920 70L1920 301L1888 301C1856 301 1792 301 1728 301C1664 301 1600 301 1536 301C1472 301 1408 301 1344 301C1280 301 1216 301 1152 301C1088 301 1024 301 960 301C896 301 832 301 768 301C704 301 640 301 576 301C512 301 448 301 384 301C320 301 256 301 192 301C128 301 64 301 32 301L0 301Z" fill="#f6fef9"></path><path d="M0 179L32 171.5C64 164 128 149 192 147.5C256 146 320 158 384 165.7C448 173.3 512 176.7 576 171.3C640 166 704 152 768 144.8C832 137.7 896 137.3 960 133.2C1024 129 1088 121 1152 128.8C1216 136.7 1280 160.3 1344 162.5C1408 164.7 1472 145.3 1536 137.8C1600 130.3 1664 134.7 1728 143.8C1792 153 1856 167 1888 174L1920 181L1920 301L1888 301C1856 301 1792 301 1728 301C1664 301 1600 301 1536 301C1472 301 1408 301 1344 301C1280 301 1216 301 1152 301C1088 301 1024 301 960 301C896 301 832 301 768 301C704 301 640 301 576 301C512 301 448 301 384 301C320 301 256 301 192 301C128 301 64 301 32 301L0 301Z" fill="#b1e1c1"></path><path d="M0 213L32 210.5C64 208 128 203 192 194.7C256 186.3 320 174.7 384 169.7C448 164.7 512 166.3 576 173.7C640 181 704 194 768 195.2C832 196.3 896 185.7 960 187.7C1024 189.7 1088 204.3 1152 210.5C1216 216.7 1280 214.3 1344 209C1408 203.7 1472 195.3 1536 192.7C1600 190 1664 193 1728 194C1792 195 1856 194 1888 193.5L1920 193L1920 301L1888 301C1856 301 1792 301 1728 301C1664 301 1600 301 1536 301C1472 301 1408 301 1344 301C1280 301 1216 301 1152 301C1088 301 1024 301 960 301C896 301 832 301 768 301C704 301 640 301 576 301C512 301 448 301 384 301C320 301 256 301 192 301C128 301 64 301 32 301L0 301Z" fill="#6ec387"></path><path d="M0 233L32 231.8C64 230.7 128 228.3 192 232.7C256 237 320 248 384 248.2C448 248.3 512 237.7 576 236C640 234.3 704 241.7 768 240C832 238.3 896 227.7 960 224.8C1024 222 1088 227 1152 231.2C1216 235.3 1280 238.7 1344 238.3C1408 238 1472 234 1536 230.8C1600 227.7 1664 225.3 1728 225C1792 224.7 1856 226.3 1888 227.2L1920 228L1920 301L1888 301C1856 301 1792 301 1728 301C1664 301 1600 301 1536 301C1472 301 1408 301 1344 301C1280 301 1216 301 1152 301C1088 301 1024 301 960 301C896 301 832 301 768 301C704 301 640 301 576 301C512 301 448 301 384 301C320 301 256 301 192 301C128 301 64 301 32 301L0 301Z" fill="#16a34a"></path></svg>