<svg id="visual" viewBox="0 0 1920 300" width="1920" height="300" xmlns="http://www.w3.org/2000/svg" xmlns:xlink="http://www.w3.org/1999/xlink" version="1.1"><path d="M0 215L32 219C64 223 128 231 192 233.7C256 236.3 320 233.7 384 218.8C448 204 512 177 576 165.2C640 153.3 704 156.7 768 157.8C832 159 896 158 960 167.5C1024 177 1088 197 1152 202.3C1216 207.7 1280 198.3 1344 194.2C1408 190 1472 191 1536 190.7C1600 190.3 1664 188.7 1728 193.3C1792 198 1856 209 1888 214.5L1920 220L1920 0L1888 0C1856 0 1792 0 1728 0C1664 0 1600 0 1536 0C1472 0 1408 0 1344 0C1280 0 1216 0 1152 0C1088 0 1024 0 960 0C896 0 832 0 768 0C704 0 640 0 576 0C512 0 448 0 384 0C320 0 256 0 192 0C128 0 64 0 32 0L0 0Z" fill="#f6fef9"></path><path d="M0 113L32 117C64 121 128 129 192 136.2C256 143.3 320 149.7 384 155.2C448 160.7 512 165.3 576 162.2C640 159 704 148 768 151.5C832 155 896 173 960 173.2C1024 173.3 1088 155.7 1152 155.7C1216 155.7 1280 173.3 1344 176.5C1408 179.7 1472 168.3 1536 163.7C1600 159 1664 161 1728 163.8C1792 166.7 1856 170.3 1888 172.2L1920 174L1920 0L1888 0C1856 0 1792 0 1728 0C1664 0 1600 0 1536 0C1472 0 1408 0 1344 0C1280 0 1216 0 1152 0C1088 0 1024 0 960 0C896 0 832 0 768 0C704 0 640 0 576 0C512 0 448 0 384 0C320 0 256 0 192 0C128 0 64 0 32 0L0 0Z" fill="#b1e1c1"></path><path d="M0 100L32 101C64 102 128 104 192 107.8C256 111.7 320 117.3 384 118.8C448 120.3 512 117.7 576 116.3C640 115 704 115 768 109.3C832 103.7 896 92.3 960 91.8C1024 91.3 1088 101.7 1152 105.7C1216 109.7 1280 107.3 1344 109.3C1408 111.3 1472 117.7 1536 118.8C1600 120 1664 116 1728 116.8C1792 117.7 1856 123.3 1888 126.2L1920 129L1920 0L1888 0C1856 0 1792 0 1728 0C1664 0 1600 0 1536 0C1472 0 1408 0 1344 0C1280 0 1216 0 1152 0C1088 0 1024 0 960 0C896 0 832 0 768 0C704 0 640 0 576 0C512 0 448 0 384 0C320 0 256 0 192 0C128 0 64 0 32 0L0 0Z" fill="#6ec387"></path><path d="M0 57L32 60.7C64 64.3 128 71.7 192 71.3C256 71 320 63 384 55.5C448 48 512 41 576 39.2C640 37.3 704 40.7 768 40C832 39.3 896 34.7 960 36C1024 37.3 1088 44.7 1152 50C1216 55.3 1280 58.7 1344 64.3C1408 70 1472 78 1536 81.7C1600 85.3 1664 84.7 1728 76.7C1792 68.7 1856 53.3 1888 45.7L1920 38L1920 0L1888 0C1856 0 1792 0 1728 0C1664 0 1600 0 1536 0C1472 0 1408 0 1344 0C1280 0 1216 0 1152 0C1088 0 1024 0 960 0C896 0 832 0 768 0C704 0 640 0 576 0C512 0 448 0 384 0C320 0 256 0 192 0C128 0 64 0 32 0L0 0Z" fill="#16a34a"></path></svg>