<svg id="visual" viewBox="0 0 960 300" width="960" height="300" xmlns="http://www.w3.org/2000/svg" xmlns:xlink="http://www.w3.org/1999/xlink" version="1.1"><path d="M0 135L20 140.7C40 146.3 80 157.7 120 157.7C160 157.7 200 146.3 240 146.2C280 146 320 157 360 163.2C400 169.3 440 170.7 480 163.2C520 155.7 560 139.3 600 139C640 138.7 680 154.3 720 161C760 167.7 800 165.3 840 161.3C880 157.3 920 151.7 940 148.8L960 146L960 0L940 0C920 0 880 0 840 0C800 0 760 0 720 0C680 0 640 0 600 0C560 0 520 0 480 0C440 0 400 0 360 0C320 0 280 0 240 0C200 0 160 0 120 0C80 0 40 0 20 0L0 0Z" fill="#ffffff"></path><path d="M0 93L20 96.7C40 100.3 80 107.7 120 111.8C160 116 200 117 240 113.3C280 109.7 320 101.3 360 102.7C400 104 440 115 480 117.8C520 120.7 560 115.3 600 115.8C640 116.3 680 122.7 720 126.7C760 130.7 800 132.3 840 130.7C880 129 920 124 940 121.5L960 119L960 0L940 0C920 0 880 0 840 0C800 0 760 0 720 0C680 0 640 0 600 0C560 0 520 0 480 0C440 0 400 0 360 0C320 0 280 0 240 0C200 0 160 0 120 0C80 0 40 0 20 0L0 0Z" fill="#bde1c0"></path><path d="M0 98L20 93.7C40 89.3 80 80.7 120 75.2C160 69.7 200 67.3 240 71C280 74.7 320 84.3 360 87.8C400 91.3 440 88.7 480 84C520 79.3 560 72.7 600 74.7C640 76.7 680 87.3 720 89C760 90.7 800 83.3 840 83.5C880 83.7 920 91.3 940 95.2L960 99L960 0L940 0C920 0 880 0 840 0C800 0 760 0 720 0C680 0 640 0 600 0C560 0 520 0 480 0C440 0 400 0 360 0C320 0 280 0 240 0C200 0 160 0 120 0C80 0 40 0 20 0L0 0Z" fill="#78c384"></path><path d="M0 59L20 57.5C40 56 80 53 120 50.7C160 48.3 200 46.7 240 48.2C280 49.7 320 54.3 360 54.3C400 54.3 440 49.7 480 49.2C520 48.7 560 52.3 600 52.8C640 53.3 680 50.7 720 49.7C760 48.7 800 49.3 840 50.8C880 52.3 920 54.7 940 55.8L960 57L960 0L940 0C920 0 880 0 840 0C800 0 760 0 720 0C680 0 640 0 600 0C560 0 520 0 480 0C440 0 400 0 360 0C320 0 280 0 240 0C200 0 160 0 120 0C80 0 40 0 20 0L0 0Z" fill="#16a34a"></path></svg>