<svg id="visual" viewBox="0 0 960 300" width="960" height="300" xmlns="http://www.w3.org/2000/svg" xmlns:xlink="http://www.w3.org/1999/xlink" version="1.1"><path d="M0 163L20 157.3C40 151.7 80 140.3 120 140.3C160 140.3 200 151.7 240 151.8C280 152 320 141 360 134.8C400 128.7 440 127.3 480 134.8C520 142.3 560 158.7 600 159C640 159.3 680 143.7 720 137C760 130.3 800 132.7 840 136.7C880 140.7 920 146.3 940 149.2L960 152L960 301L940 301C920 301 880 301 840 301C800 301 760 301 720 301C680 301 640 301 600 301C560 301 520 301 480 301C440 301 400 301 360 301C320 301 280 301 240 301C200 301 160 301 120 301C80 301 40 301 20 301L0 301Z" fill="#ffffff"></path><path d="M0 205L20 201.3C40 197.7 80 190.3 120 186.2C160 182 200 181 240 184.7C280 188.3 320 196.7 360 195.3C400 194 440 183 480 180.2C520 177.3 560 182.7 600 182.2C640 181.7 680 175.3 720 171.3C760 167.3 800 165.7 840 167.3C880 169 920 174 940 176.5L960 179L960 301L940 301C920 301 880 301 840 301C800 301 760 301 720 301C680 301 640 301 600 301C560 301 520 301 480 301C440 301 400 301 360 301C320 301 280 301 240 301C200 301 160 301 120 301C80 301 40 301 20 301L0 301Z" fill="#bde1c0"></path><path d="M0 200L20 204.3C40 208.7 80 217.3 120 222.8C160 228.3 200 230.7 240 227C280 223.3 320 213.7 360 210.2C400 206.7 440 209.3 480 214C520 218.7 560 225.3 600 223.3C640 221.3 680 210.7 720 209C760 207.3 800 214.7 840 214.5C880 214.3 920 206.7 940 202.8L960 199L960 301L940 301C920 301 880 301 840 301C800 301 760 301 720 301C680 301 640 301 600 301C560 301 520 301 480 301C440 301 400 301 360 301C320 301 280 301 240 301C200 301 160 301 120 301C80 301 40 301 20 301L0 301Z" fill="#78c384"></path><path d="M0 239L20 240.5C40 242 80 245 120 247.3C160 249.7 200 251.3 240 249.8C280 248.3 320 243.7 360 243.7C400 243.7 440 248.3 480 248.8C520 249.3 560 245.7 600 245.2C640 244.7 680 247.3 720 248.3C760 249.3 800 248.7 840 247.2C880 245.7 920 243.3 940 242.2L960 241L960 301L940 301C920 301 880 301 840 301C800 301 760 301 720 301C680 301 640 301 600 301C560 301 520 301 480 301C440 301 400 301 360 301C320 301 280 301 240 301C200 301 160 301 120 301C80 301 40 301 20 301L0 301Z" fill="#16a34a"></path></svg>